<?xml version="1.0" encoding="UTF-8"?>
<svg xmlns="http://www.w3.org/2000/svg" viewBox="0 0 488.96 299.73">
  <defs>
    <style>
      .cls-1 {
        stroke-dasharray: 0 0 9.32 9.32;
      }

      .cls-1, .cls-2, .cls-3, .cls-4, .cls-5, .cls-6, .cls-7, .cls-8 {
        fill: none;
        stroke-miterlimit: 10;
        stroke-width: 2.5px;
      }

      .cls-1, .cls-2, .cls-3, .cls-6, .cls-8 {
        stroke: #870000;
      }

      .cls-2 {
        stroke-dasharray: 0 0 8.23 8.23;
      }

      .cls-3 {
        stroke-dasharray: 0 0 9.21 9.21;
      }

      .cls-9 {
        fill: #1136ef;
      }

      .cls-4 {
        stroke: #ed1414;
      }

      .cls-5 {
        stroke: #1136ef;
      }

      .cls-7 {
        stroke: #000;
      }

      .cls-8 {
        stroke-dasharray: 0 0 8.38 8.38;
      }
    </style>
  </defs>
  <g id="Calque_2" data-name="Calque 2">
    <polygon class="cls-7" points="303.17 23.03 428.02 21.31 487.42 71.77 405.46 249.31 288.53 206.77 229.99 175.6 303.17 23.03"/>
    <polyline class="cls-7" points="405.46 249.31 338.3 211.25 229.99 175.6"/>
    <line class="cls-7" x1="339.3" y1="211.25" x2="428.02" y2="21.31"/>
    <g>
      <line class="cls-7" x1="186.21" y1="199.38" x2="258.19" y2="234.98"/>
      <polygon points="185.08 205.77 178.17 195.4 190.61 194.6 185.08 205.77"/>
    </g>
    <line class="cls-7" x1="174.05" y1="193.32" x2="165.44" y2="188.88"/>
    <line class="cls-7" x1="156.93" y1="184.72" x2="149.05" y2="180.64"/>
    <line class="cls-7" x1="141.53" y1="177.29" x2="133.2" y2="172.58"/>
    <line class="cls-7" x1="125.84" y1="169.48" x2="117.51" y2="164.78"/>
    <line class="cls-7" x1="109.74" y1="161.5" x2="101.4" y2="156.79"/>
    <g>
      <polyline class="cls-7" points="177.56 141.42 85 149 120.05 163.67"/>
      <polygon points="175.24 135.35 186.5 140.68 176.25 147.78 175.24 135.35"/>
      <polygon points="115.96 168.71 128.32 167.13 120.77 157.21 115.96 168.71"/>
    </g>
    <g>
      <line class="cls-7" x1="89.32" y1="248.65" x2="83.62" y2="149"/>
      <polygon points="95.44 246.47 89.83 257.61 82.99 247.19 95.44 246.47"/>
    </g>
    <polygon class="cls-7" points="79.12 185.64 9.14 193.24 3.26 188.58 1.3 142.38 70.17 137.35 76.91 139.93 79.12 185.64"/>
    <polyline class="cls-7" points="1.3 142.38 6.2 145.81 9.14 193.24"/>
    <line class="cls-7" x1="76.91" y1="139.93" x2="6.2" y2="145.81"/>
    <g>
      <line class="cls-6" x1="256.84" y1="168.41" x2="256.93" y2="172.91"/>
      <line class="cls-2" x1="257.1" y1="181.14" x2="258.01" y2="226.37"/>
      <line class="cls-6" x1="258.1" y1="230.48" x2="258.19" y2="234.98"/>
    </g>
    <g>
      <line class="cls-6" x1="326.33" y1="44.35" x2="324.81" y2="48.59"/>
      <line class="cls-3" x1="321.71" y1="57.26" x2="261.25" y2="226.41"/>
      <line class="cls-6" x1="259.7" y1="230.74" x2="258.19" y2="234.98"/>
    </g>
    <g>
      <line class="cls-6" x1="342.44" y1="90.32" x2="340.17" y2="94.21"/>
      <line class="cls-1" x1="335.48" y1="102.26" x2="262.8" y2="227.07"/>
      <line class="cls-6" x1="260.45" y1="231.09" x2="258.19" y2="234.98"/>
    </g>
    <g>
      <line class="cls-6" x1="339.08" y1="149.16" x2="335.99" y2="152.44"/>
      <line class="cls-8" x1="330.24" y1="158.54" x2="264.15" y2="228.66"/>
      <line class="cls-6" x1="261.27" y1="231.71" x2="258.19" y2="234.98"/>
    </g>
  </g>
  <g id="Calque_3" data-name="Calque 3">
    <polygon class="cls-4" points="299.62 8.7 452.46 1.65 315.69 298 192.63 232.48 299.62 8.7"/>
    <g>
      <line class="cls-5" x1="246.8" y1="166.92" x2="89.34" y2="149.82"/>
      <polygon class="cls-9" points="245.66 160.53 255.72 167.89 244.32 172.92 245.66 160.53"/>
    </g>
    <g>
      <line class="cls-5" x1="330.11" y1="149.16" x2="89.34" y2="149.11"/>
      <polygon class="cls-9" points="328.28 142.93 339.08 149.16 328.28 155.39 328.28 142.93"/>
    </g>
    <g>
      <polyline class="cls-5" points="318.1 47.93 89.34 147.42 333.69 92.29"/>
      <polygon class="cls-9" points="313.94 42.94 326.33 44.35 318.91 54.37 313.94 42.94"/>
      <polygon class="cls-9" points="333.28 98.77 342.44 90.32 330.54 86.61 333.28 98.77"/>
    </g>
    <path d="M77,141.83l6.95-4.47s10.38,8.44,2.77,23.56l-8.96-3.4-.76-15.69Z"/>
  </g>
</svg>